<svg version="1.1" xmlns="http://www.w3.org/2000/svg" xmlns:xlink="http://www.w3.org/1999/xlink" width="1604" height="940">
    <defs />
    <g>

        <g transform="translate(-246,-14) scale(1,1)">
            <rect fill="#C0C0C0" stroke="none" x="1431" y="479" width="166.4000000000001" height="15" opacity="0.2" />
        </g>
        <g transform="translate(-246,-14) scale(1,1)">
            <rect fill="#C0C0C0" stroke="none" x="1431" y="493" width="416" height="210" opacity="0.2" />
        </g>
        <g transform="translate(-246,-14) scale(1,1)">
            <rect fill="#ffffff" stroke="none" x="1424" y="487" width="416" height="209" />
        </g>
        <g transform="translate(-246,-14) scale(1,1)">
            <path fill="none" stroke="#000000" d="M 1424 487 L 1840 487 L 1840 696 L 1424 696 L 1424 487 Z Z" stroke-miterlimit="10" />
        </g>
        <g transform="translate(-246,-14) scale(1,1)">
            <rect fill="#ffffff" stroke="none" x="1424" y="472" width="166.4000000000001" height="15" />
        </g>
        <g transform="translate(-246,-14) scale(1,1)">
            <path fill="none" stroke="#000000" d="M 1424 472 L 1590.4 472 L 1590.4 487 L 1424 487 L 1424 472 Z Z" stroke-miterlimit="10" />
        </g>
        <g transform="translate(-246,-14) scale(1,1)">
            <rect fill="#ffffff" stroke="none" x="1424" y="486" width="416" height="210" />
        </g>
        <g transform="translate(-246,-14) scale(1,1)">
            <path fill="none" stroke="#000000" d="M 1424 486 L 1840 486 L 1840 696 L 1424 696 L 1424 486 Z Z" stroke-miterlimit="10" />
        </g>
        <g transform="translate(-246,-14) scale(1,1)">
            <g>
                <path fill="none" stroke="none" />
                <text fill="#000000" stroke="none" font-family="Arial" font-size="13px" font-style="normal" font-weight="bold" text-decoration="none" x="1508.08740234375" y="506.5">EnigmatiKreations.Framework.ApiManager</text>
            </g>
        </g>
        <g transform="translate(-246,-14) scale(1,1)">
            <rect fill="#C0C0C0" stroke="none" x="295" y="31" width="332.79999999999995" height="15" opacity="0.2" />
        </g>
        <g transform="translate(-246,-14) scale(1,1)">
            <rect fill="#C0C0C0" stroke="none" x="295" y="45" width="832" height="394" opacity="0.2" />
        </g>
        <g transform="translate(-246,-14) scale(1,1)">
            <rect fill="#ffffff" stroke="none" x="288" y="39" width="832" height="393" />
        </g>
        <g transform="translate(-246,-14) scale(1,1)">
            <path fill="none" stroke="#000000" d="M 288 39 L 1120 39 L 1120 432 L 288 432 L 288 39 Z Z" stroke-miterlimit="10" />
        </g>
        <g transform="translate(-246,-14) scale(1,1)">
            <rect fill="#ffffff" stroke="none" x="288" y="24" width="332.79999999999995" height="15" />
        </g>
        <g transform="translate(-246,-14) scale(1,1)">
            <path fill="none" stroke="#000000" d="M 288 24 L 620.8 24 L 620.8 39 L 288 39 L 288 24 Z Z" stroke-miterlimit="10" />
        </g>
        <g transform="translate(-246,-14) scale(1,1)">
            <rect fill="#ffffff" stroke="none" x="288" y="38" width="832" height="394" />
        </g>
        <g transform="translate(-246,-14) scale(1,1)">
            <path fill="none" stroke="#000000" d="M 288 38 L 1120 38 L 1120 432 L 288 432 L 288 38 Z Z" stroke-miterlimit="10" />
        </g>
        <g transform="translate(-246,-14) scale(1,1)">
            <g>
                <path fill="none" stroke="none" />
                <text fill="#000000" stroke="none" font-family="Arial" font-size="13px" font-style="normal" font-weight="bold" text-decoration="none" x="612.247802734375" y="58.5">Randomizer.Framework.Models</text>
            </g>
        </g>
        <g transform="translate(-246,-14) scale(1,1)">
            <rect fill="#C0C0C0" stroke="none" x="383" y="313" width="159.5078125" height="57" opacity="0.2" />
        </g>
        <g transform="translate(-246,-14) scale(1,1)">
            <rect fill="#C0C0C0" stroke="none" x="508.5478515625" y="295" width="42.9599609375" height="22" opacity="0.2" />
        </g>
        <g transform="translate(-246,-14) scale(1,1)">
            <rect fill="#ffffff" stroke="none" x="376" y="306" width="159.5078125" height="57" />
        </g>
        <g transform="translate(-246,-14) scale(1,1)">
            <path fill="none" stroke="#000000" d="M 376 306 L 535.5078125 306 L 535.5078125 363 L 376 363 L 376 306 Z Z" stroke-miterlimit="10" />
        </g>
        <g transform="translate(-246,-14) scale(1,1)">
            <path fill="none" stroke="#000000" d="M 376 331 L 535.5078125 331" stroke-miterlimit="10" />
        </g>
        <g transform="translate(-246,-14) scale(1,1)">
            <path fill="none" stroke="#000000" d="M 376 354 L 535.5078125 354" stroke-miterlimit="10" />
        </g>
        <g transform="translate(-246,-14) scale(1,1)">
            <g>
                <path fill="none" stroke="none" />
                <text fill="#000000" stroke="none" font-family="Arial" font-size="13px" font-style="normal" font-weight="bold" text-decoration="none" x="396.1494140625" y="325.5">TextRandomizerItem</text>
            </g>
        </g>
        <g transform="translate(-246,-14) scale(1,1)">
            <g>
                <path fill="none" stroke="none" />
                <text fill="#000000" stroke="none" font-family="Arial" font-size="13px" font-style="normal" font-weight="normal" text-decoration="none" x="381" y="348.5">+value: string</text>
            </g>
        </g>
        <g transform="translate(-246,-14) scale(1,1)">
            <rect fill="#ffffff" stroke="none" x="501.5478515625" y="288" width="42.9599609375" height="22" />
        </g>
        <g transform="translate(-246,-14) scale(1,1)">
            <path fill="none" stroke="#000000" d="M 501.5478515625 288 L 544.5078125 288 L 544.5078125 310 L 501.5478515625 310 L 501.5478515625 288 Z Z" stroke-miterlimit="10" stroke-dasharray="3" />
        </g>
        <g transform="translate(-246,-14) scale(1,1)">
            <g>
                <path fill="none" stroke="none" />
                <text fill="#000000" stroke="none" font-family="Arial" font-size="13px" font-style="normal" font-weight="normal" text-decoration="none" x="506.5478515625" y="305.5">String</text>
            </g>
        </g>
        <g transform="translate(-246,-14) scale(1,1)">
            <rect fill="#C0C0C0" stroke="none" x="631" y="313" width="167.70263671875" height="57" opacity="0.2" />
        </g>
        <g transform="translate(-246,-14) scale(1,1)">
            <rect fill="#C0C0C0" stroke="none" x="762.57177734375" y="295" width="45.130859375" height="22" opacity="0.2" />
        </g>
        <g transform="translate(-246,-14) scale(1,1)">
            <rect fill="#ffffff" stroke="none" x="624" y="306" width="167.70263671875" height="57" />
        </g>
        <g transform="translate(-246,-14) scale(1,1)">
            <path fill="none" stroke="#000000" d="M 624 306 L 791.70263671875 306 L 791.70263671875 363 L 624 363 L 624 306 Z Z" stroke-miterlimit="10" />
        </g>
        <g transform="translate(-246,-14) scale(1,1)">
            <path fill="none" stroke="#000000" d="M 624 331 L 791.70263671875 331" stroke-miterlimit="10" />
        </g>
        <g transform="translate(-246,-14) scale(1,1)">
            <path fill="none" stroke="#000000" d="M 624 341 L 791.70263671875 341" stroke-miterlimit="10" />
        </g>
        <g transform="translate(-246,-14) scale(1,1)">
            <g>
                <path fill="none" stroke="none" />
                <text fill="#000000" stroke="none" font-family="Arial" font-size="13px" font-style="normal" font-weight="bold" text-decoration="none" x="642.102294921875" y="325.5">ImageRandomizerItem</text>
            </g>
        </g>
        <g transform="translate(-246,-14) scale(1,1)">
            <g>
                <path fill="none" stroke="none" />
                <text fill="#000000" stroke="none" font-family="Arial" font-size="13px" font-style="normal" font-weight="normal" text-decoration="none" x="629" y="358.5">+image(): Image</text>
            </g>
        </g>
        <g transform="translate(-246,-14) scale(1,1)">
            <rect fill="#ffffff" stroke="none" x="755.57177734375" y="288" width="45.130859375" height="22" />
        </g>
        <g transform="translate(-246,-14) scale(1,1)">
            <path fill="none" stroke="#000000" d="M 755.57177734375 288 L 800.70263671875 288 L 800.70263671875 310 L 755.57177734375 310 L 755.57177734375 288 Z Z" stroke-miterlimit="10" stroke-dasharray="3" />
        </g>
        <g transform="translate(-246,-14) scale(1,1)">
            <g>
                <path fill="none" stroke="none" />
                <text fill="#000000" stroke="none" font-family="Arial" font-size="13px" font-style="normal" font-weight="normal" text-decoration="none" x="760.57177734375" y="305.5">Image</text>
            </g>
        </g>
        <g transform="translate(-246,-14) scale(1,1)">
            <rect fill="#C0C0C0" stroke="none" x="503" y="148" width="167.74267578125" height="73" opacity="0.2" />
        </g>
        <g transform="translate(-246,-14) scale(1,1)">
            <rect fill="#C0C0C0" stroke="none" x="670.74267578125" y="143" width="9" height="9" opacity="0.2" />
        </g>
        <g transform="translate(-246,-14) scale(1,1)">
            <rect fill="#ffffff" stroke="none" x="496" y="141" width="167.74267578125" height="73" />
        </g>
        <g transform="translate(-246,-14) scale(1,1)">
            <path fill="none" stroke="#000000" d="M 496 141 L 663.74267578125 141 L 663.74267578125 214 L 496 214 L 496 141 Z Z" stroke-miterlimit="10" />
        </g>
        <g transform="translate(-246,-14) scale(1,1)">
            <path fill="none" stroke="#000000" d="M 496 179 L 663.74267578125 179" stroke-miterlimit="10" />
        </g>
        <g transform="translate(-246,-14) scale(1,1)">
            <g>
                <path fill="none" stroke="none" />
                <text fill="#000000" stroke="none" font-family="Arial" font-size="13px" font-style="normal" font-weight="normal" text-decoration="none" x="547.7109375" y="158.5">«interface»</text>
            </g>
        </g>
        <g transform="translate(-246,-14) scale(1,1)">
            <g>
                <path fill="none" stroke="none" />
                <text fill="#000000" stroke="none" font-family="Arial" font-size="13px" font-style="normal" font-weight="bold" text-decoration="none" x="530.3818359375" y="173.5">IRandomizerItem</text>
            </g>
        </g>
        <g transform="translate(-246,-14) scale(1,1)">
            <g>
                <path fill="none" stroke="none" />
                <text fill="#000000" stroke="none" font-family="Arial" font-size="13px" font-style="normal" font-weight="normal" text-decoration="none" x="501" y="196.5">+id: object</text>
            </g>
        </g>
        <g transform="translate(-246,-14) scale(1,1)">
            <rect fill="#ffffff" stroke="none" x="663.74267578125" y="136" width="9" height="9" />
        </g>
        <g transform="translate(-246,-14) scale(1,1)">
            <path fill="none" stroke="#000000" d="M 663.74267578125 136 L 672.74267578125 136 L 672.74267578125 145 L 663.74267578125 145 L 663.74267578125 136 Z Z" stroke-miterlimit="10" stroke-dasharray="3" />
        </g>
        <g transform="translate(-246,-14) scale(1,1)">
            <path fill="none" stroke="#000000" d="M 546 319 L 542 319 M 542 319 A 8 8 0 0 0 550 311 L 550 214" stroke-miterlimit="10" stroke-dasharray="3" />
        </g>
        <g transform="translate(-246,-14) scale(1,1)">
            <path fill="#FFFFFF" stroke="none" d="M 558.419035512032 234.3253497152483 L 550 214 L 541.580964487968 234.3253497152483" />
        </g>
        <g transform="translate(-246,-14) scale(1,1)">
            <path fill="none" stroke="#000000" d="M 558.419035512032 234.3253497152483 L 550 214 L 541.580964487968 234.3253497152483 L 558.419035512032 234.3253497152483" stroke-miterlimit="10" />
        </g>
        <g transform="translate(-246,-14) scale(1,1)">
            <path fill="none" stroke="#000000" d="M 624 319 L 628 319 M 628 319 A 8 8 0 0 1 620 311 L 620 214" stroke-miterlimit="10" stroke-dasharray="3" />
        </g>
        <g transform="translate(-246,-14) scale(1,1)">
            <path fill="#FFFFFF" stroke="none" d="M 628.419035512032 234.3253497152483 L 620 214 L 611.580964487968 234.3253497152483" />
        </g>
        <g transform="translate(-246,-14) scale(1,1)">
            <path fill="none" stroke="#000000" d="M 628.419035512032 234.3253497152483 L 620 214 L 611.580964487968 234.3253497152483 L 628.419035512032 234.3253497152483" stroke-miterlimit="10" />
        </g>
        <g transform="translate(-246,-14) scale(1,1)">
            <path fill="none" stroke="#000000" d="M 674 178 L 880 178" stroke-miterlimit="10" />
        </g>
        <g transform="translate(-246,-14) scale(1,1)">
            <path fill="#FFFFFF" stroke="none" d="M 869.8373251423759 182.209517756016 L 880 178 L 869.8373251423758 173.790482243984 L 858 178" />
        </g>
        <g transform="translate(-246,-14) scale(1,1)">
            <path fill="none" stroke="#000000" d="M 869.8373251423759 182.209517756016 L 880 178 L 869.8373251423758 173.790482243984 L 858 178 L 869.8373251423759 182.209517756016" stroke-miterlimit="10" />
        </g>
        <g transform="translate(-246,-14) scale(1,1)">
            <path fill="none" stroke="#000000" d="M 684.1626748576241 173.790482243984 L 674 178 L 684.1626748576241 182.209517756016" stroke-miterlimit="10" />
        </g>
        <g transform="translate(-246,-14) scale(1,1)">
            <g>
                <path fill="none" stroke="none" />
                <text fill="#000000" stroke="none" font-family="Arial" font-size="13px" font-style="normal" font-weight="normal" text-decoration="none" x="746.5" y="169.5">+Items</text>
            </g>
        </g>
        <g transform="translate(-246,-14) scale(1,1)">
            <rect fill="#C0C0C0" stroke="none" x="887" y="156" width="149.6689453125" height="73" opacity="0.2" />
        </g>
        <g transform="translate(-246,-14) scale(1,1)">
            <rect fill="#C0C0C0" stroke="none" x="1036.6689453125" y="151" width="9" height="9" opacity="0.2" />
        </g>
        <g transform="translate(-246,-14) scale(1,1)">
            <rect fill="#ffffff" stroke="none" x="880" y="149" width="149.6689453125" height="73" />
        </g>
        <g transform="translate(-246,-14) scale(1,1)">
            <path fill="none" stroke="#000000" d="M 880 149 L 1029.6689453125 149 L 1029.6689453125 222 L 880 222 L 880 149 Z Z" stroke-miterlimit="10" />
        </g>
        <g transform="translate(-246,-14) scale(1,1)">
            <path fill="none" stroke="#000000" d="M 880 187 L 1029.6689453125 187" stroke-miterlimit="10" />
        </g>
        <g transform="translate(-246,-14) scale(1,1)">
            <g>
                <path fill="none" stroke="none" />
                <text fill="#000000" stroke="none" font-family="Arial" font-size="13px" font-style="normal" font-weight="normal" text-decoration="none" x="922.674072265625" y="166.5">«interface»</text>
            </g>
        </g>
        <g transform="translate(-246,-14) scale(1,1)">
            <g>
                <path fill="none" stroke="none" />
                <text fill="#000000" stroke="none" font-family="Arial" font-size="13px" font-style="normal" font-weight="bold" text-decoration="none" x="907.871337890625" y="181.5">IRandomizerList</text>
            </g>
        </g>
        <g transform="translate(-246,-14) scale(1,1)">
            <g>
                <path fill="none" stroke="none" />
                <text fill="#000000" stroke="none" font-family="Arial" font-size="13px" font-style="normal" font-weight="normal" text-decoration="none" x="885" y="204.5">+name: string</text>
            </g>
        </g>
        <g transform="translate(-246,-14) scale(1,1)">
            <rect fill="#ffffff" stroke="none" x="1029.6689453125" y="144" width="9" height="9" />
        </g>
        <g transform="translate(-246,-14) scale(1,1)">
            <path fill="none" stroke="#000000" d="M 1029.6689453125 144 L 1038.6689453125 144 L 1038.6689453125 153 L 1029.6689453125 153 L 1029.6689453125 144 Z Z" stroke-miterlimit="10" stroke-dasharray="3" />
        </g>
        <g transform="translate(-246,-14) scale(1,1)">
            <rect fill="#C0C0C0" stroke="none" x="871" y="300" width="198" height="83" opacity="0.2" />
        </g>
        <g transform="translate(-246,-14) scale(1,1)">
            <rect fill="#C0C0C0" stroke="none" x="1069" y="295" width="9" height="9" opacity="0.2" />
        </g>
        <g transform="translate(-246,-14) scale(1,1)">
            <rect fill="#ffffff" stroke="none" x="864" y="293" width="198" height="83" />
        </g>
        <g transform="translate(-246,-14) scale(1,1)">
            <path fill="none" stroke="#000000" d="M 864 293 L 1062 293 L 1062 376 L 864 376 L 864 293 Z Z" stroke-miterlimit="10" />
        </g>
        <g transform="translate(-246,-14) scale(1,1)">
            <path fill="none" stroke="#000000" d="M 864 318 L 1062 318" stroke-miterlimit="10" />
        </g>
        <g transform="translate(-246,-14) scale(1,1)">
            <path fill="none" stroke="#000000" d="M 864 328 L 1062 328" stroke-miterlimit="10" />
        </g>
        <g transform="translate(-246,-14) scale(1,1)">
            <g>
                <path fill="none" stroke="none" />
                <text fill="#000000" stroke="none" font-family="Arial" font-size="13px" font-style="normal" font-weight="bold" text-decoration="none" x="917.8427734375" y="312.5">RandomizerList</text>
            </g>
        </g>
        <g transform="translate(-246,-14) scale(1,1)">
            <rect fill="#ffffff" stroke="none" x="1062" y="288" width="9" height="9" />
        </g>
        <g transform="translate(-246,-14) scale(1,1)">
            <path fill="none" stroke="#000000" d="M 1062 288 L 1071 288 L 1071 297 L 1062 297 L 1062 288 Z Z" stroke-miterlimit="10" stroke-dasharray="3" />
        </g>
        <g transform="translate(-246,-14) scale(1,1)">
            <path fill="none" stroke="#000000" d="M 941 288 L 941 222" stroke-miterlimit="10" stroke-dasharray="3" />
        </g>
        <g transform="translate(-246,-14) scale(1,1)">
            <path fill="#FFFFFF" stroke="none" d="M 949.419035512032 242.3253497152483 L 941 222 L 932.580964487968 242.3253497152483" />
        </g>
        <g transform="translate(-246,-14) scale(1,1)">
            <path fill="none" stroke="#000000" d="M 949.419035512032 242.3253497152483 L 941 222 L 932.580964487968 242.3253497152483 L 949.419035512032 242.3253497152483" stroke-miterlimit="10" />
        </g>
        <g transform="translate(-246,-14) scale(1,1)">
            <rect fill="#C0C0C0" stroke="none" x="263" y="503" width="281.6" height="15" opacity="0.2" />
        </g>
        <g transform="translate(-246,-14) scale(1,1)">
            <rect fill="#C0C0C0" stroke="none" x="263" y="517" width="704" height="434" opacity="0.2" />
        </g>
        <g transform="translate(-246,-14) scale(1,1)">
            <rect fill="#ffffff" stroke="none" x="256" y="511" width="704" height="433" />
        </g>
        <g transform="translate(-246,-14) scale(1,1)">
            <path fill="none" stroke="#000000" d="M 256 511 L 960 511 L 960 944 L 256 944 L 256 511 Z Z" stroke-miterlimit="10" />
        </g>
        <g transform="translate(-246,-14) scale(1,1)">
            <rect fill="#ffffff" stroke="none" x="256" y="496" width="281.6" height="15" />
        </g>
        <g transform="translate(-246,-14) scale(1,1)">
            <path fill="none" stroke="#000000" d="M 256 496 L 537.6 496 L 537.6 511 L 256 511 L 256 496 Z Z" stroke-miterlimit="10" />
        </g>
        <g transform="translate(-246,-14) scale(1,1)">
            <rect fill="#ffffff" stroke="none" x="256" y="510" width="704" height="434" />
        </g>
        <g transform="translate(-246,-14) scale(1,1)">
            <path fill="none" stroke="#000000" d="M 256 510 L 960 510 L 960 944 L 256 944 L 256 510 Z Z" stroke-miterlimit="10" />
        </g>
        <g transform="translate(-246,-14) scale(1,1)">
            <g>
                <path fill="none" stroke="none" />
                <text fill="#000000" stroke="none" font-family="Arial" font-size="13px" font-style="normal" font-weight="bold" text-decoration="none" x="485.176025390625" y="530.5">EnigmatiKreations.Framework.Persistence</text>
            </g>
        </g>
        <g transform="translate(-246,-14) scale(1,1)">
            <path fill="#ffffff" stroke="none" d="M 800 808 L 925 808 L 935 818 L 935 930 L 800 930 L 800 808" />
        </g>
        <g transform="translate(-246,-14) scale(1,1)">
            <path fill="none" stroke="#000000" d="M 800 808 L 925 808 L 935 818 L 935 930 L 800 930 L 800 808 L 800 808" stroke-miterlimit="10" />
        </g>
        <g transform="translate(-246,-14) scale(1,1)">
            <path fill="none" stroke="#000000" d="M 925 808 L 925 818 L 935 818 L 925 808" stroke-miterlimit="10" />
        </g>
        <g transform="translate(-246,-14) scale(1,1)">
            <g>
                <path fill="none" stroke="none" />
                <text fill="#000000" stroke="none" font-family="Arial" font-size="16px" font-style="normal" font-weight="normal" text-decoration="none" x="805" y="829">All classes that</text>
                <text fill="#000000" stroke="none" font-family="Arial" font-size="16px" font-style="normal" font-weight="normal" text-decoration="none" x="805" y="845">implement</text>
                <text fill="#000000" stroke="none" font-family="Arial" font-size="16px" font-style="normal" font-weight="normal" text-decoration="none" x="805" y="861">IListsManager</text>
                <text fill="#000000" stroke="none" font-family="Arial" font-size="16px" font-style="normal" font-weight="normal" text-decoration="none" x="805" y="877">should have a</text>
                <text fill="#000000" stroke="none" font-family="Arial" font-size="16px" font-style="normal" font-weight="normal" text-decoration="none" x="805" y="893">constructor with a</text>
                <text fill="#000000" stroke="none" font-family="Arial" font-size="16px" font-style="normal" font-weight="normal" text-decoration="none" x="805" y="909">IDataManager as</text>
                <text fill="#000000" stroke="none" font-family="Arial" font-size="16px" font-style="normal" font-weight="normal" text-decoration="none" x="805" y="925">a parameter</text>
            </g>
        </g>
        <g transform="translate(-246,-14) scale(1,1)">
            <rect fill="#C0C0C0" stroke="none" x="1471" y="559" width="270.19970703125" height="88" opacity="0.2" />
        </g>
        <g transform="translate(-246,-14) scale(1,1)">
            <rect fill="#ffffff" stroke="none" x="1464" y="552" width="270.19970703125" height="88" />
        </g>
        <g transform="translate(-246,-14) scale(1,1)">
            <path fill="none" stroke="#000000" d="M 1464 552 L 1734.19970703125 552 L 1734.19970703125 640 L 1464 640 L 1464 552 Z Z" stroke-miterlimit="10" />
        </g>
        <g transform="translate(-246,-14) scale(1,1)">
            <path fill="none" stroke="#000000" d="M 1464 577 L 1734.19970703125 577" stroke-miterlimit="10" />
        </g>
        <g transform="translate(-246,-14) scale(1,1)">
            <path fill="none" stroke="#000000" d="M 1464 587 L 1734.19970703125 587" stroke-miterlimit="10" />
        </g>
        <g transform="translate(-246,-14) scale(1,1)">
            <g>
                <path fill="none" stroke="none" />
                <text fill="#000000" stroke="none" font-family="Arial" font-size="13px" font-style="normal" font-weight="bold" text-decoration="none" x="1565.13671875" y="571.5">RandomApi</text>
            </g>
        </g>
        <g transform="translate(-246,-14) scale(1,1)">
            <g>
                <path fill="none" stroke="none" />
                <text fill="#000000" stroke="none" font-family="Arial" font-size="13px" font-style="normal" font-weight="normal" text-decoration="none" x="1469" y="604.5">+GetRandomItemIndex(list: IEnumerable): int</text>
            </g>
        </g>
        <g transform="translate(-246,-14) scale(1,1)">
            <path fill="none" stroke="#000000" d="M 840 496 L 840 432" stroke-miterlimit="10" stroke-dasharray="3" />
        </g>
        <g transform="translate(-246,-14) scale(1,1)">
            <path fill="none" stroke="#000000" d="M 844.209517756016 442.16267485762415 L 840 432 L 835.790482243984 442.16267485762415" stroke-miterlimit="10" />
        </g>
        <g transform="translate(-246,-14) scale(1,1)">
            <path fill="#ffffff" stroke="none" d="M 768 616 L 925 616 L 935 626 L 935 691 L 768 691 L 768 616" />
        </g>
        <g transform="translate(-246,-14) scale(1,1)">
            <path fill="none" stroke="#000000" d="M 768 616 L 925 616 L 935 626 L 935 691 L 768 691 L 768 616 L 768 616" stroke-miterlimit="10" />
        </g>
        <g transform="translate(-246,-14) scale(1,1)">
            <path fill="none" stroke="#000000" d="M 925 616 L 925 626 L 935 626 L 925 616" stroke-miterlimit="10" />
        </g>
        <g transform="translate(-246,-14) scale(1,1)">
            <g>
                <path fill="none" stroke="none" />
                <text fill="#000000" stroke="none" font-family="Arial" font-size="13px" font-style="normal" font-weight="normal" text-decoration="none" x="773" y="634">IDataManager can have</text>
                <text fill="#000000" stroke="none" font-family="Arial" font-size="13px" font-style="normal" font-weight="normal" text-decoration="none" x="773" y="647">multiple derived classes</text>
                <text fill="#000000" stroke="none" font-family="Arial" font-size="13px" font-style="normal" font-weight="normal" text-decoration="none" x="773" y="660">that will each decide how</text>
                <text fill="#000000" stroke="none" font-family="Arial" font-size="13px" font-style="normal" font-weight="normal" text-decoration="none" x="773" y="673">to make persistance on</text>
                <text fill="#000000" stroke="none" font-family="Arial" font-size="13px" font-style="normal" font-weight="normal" text-decoration="none" x="773" y="686">their own</text>
            </g>
        </g>
        <g transform="translate(-246,-14) scale(1,1)">
            <rect fill="#C0C0C0" stroke="none" x="439" y="591" width="278.89599609375" height="130" opacity="0.2" />
        </g>
        <g transform="translate(-246,-14) scale(1,1)">
            <rect fill="#ffffff" stroke="none" x="432" y="584" width="278.89599609375" height="130" />
        </g>
        <g transform="translate(-246,-14) scale(1,1)">
            <path fill="none" stroke="#000000" d="M 432 584 L 710.89599609375 584 L 710.89599609375 714 L 432 714 L 432 584 Z Z" stroke-miterlimit="10" />
        </g>
        <g transform="translate(-246,-14) scale(1,1)">
            <path fill="none" stroke="#000000" d="M 432 622 L 710.89599609375 622" stroke-miterlimit="10" />
        </g>
        <g transform="translate(-246,-14) scale(1,1)">
            <path fill="none" stroke="#000000" d="M 432 632 L 710.89599609375 632" stroke-miterlimit="10" />
        </g>
        <g transform="translate(-246,-14) scale(1,1)">
            <g>
                <path fill="none" stroke="none" />
                <text fill="#000000" stroke="none" font-family="Arial" font-size="13px" font-style="normal" font-weight="normal" text-decoration="none" x="539.28759765625" y="601.5">«interface»</text>
            </g>
        </g>
        <g transform="translate(-246,-14) scale(1,1)">
            <g>
                <path fill="none" stroke="none" />
                <text fill="#000000" stroke="none" font-family="Arial" font-size="13px" font-style="normal" font-weight="bold" text-decoration="none" x="530.258056640625" y="616.5">IDataManager</text>
            </g>
        </g>
        <g transform="translate(-246,-14) scale(1,1)">
            <g>
                <path fill="none" stroke="none" />
                <text fill="#000000" stroke="none" font-family="Arial" font-size="13px" font-style="normal" font-weight="normal" text-decoration="none" x="437" y="649.5">+Add(item: IIdentifiable): Task&lt;bool&gt;</text>
            </g>
        </g>
        <g transform="translate(-246,-14) scale(1,1)">
            <g>
                <path fill="none" stroke="none" />
                <text fill="#000000" stroke="none" font-family="Arial" font-size="13px" font-style="normal" font-weight="normal" text-decoration="none" x="437" y="664.5">+Get(item: IIdentifiable): Task&lt;Identifiable&gt;</text>
            </g>
        </g>
        <g transform="translate(-246,-14) scale(1,1)">
            <g>
                <path fill="none" stroke="none" />
                <text fill="#000000" stroke="none" font-family="Arial" font-size="13px" font-style="normal" font-weight="normal" text-decoration="none" x="437" y="679.5">+Remove(item: IIdentifiable): Task&lt;bool&gt;</text>
            </g>
        </g>
        <g transform="translate(-246,-14) scale(1,1)">
            <g>
                <path fill="none" stroke="none" />
                <text fill="#000000" stroke="none" font-family="Arial" font-size="13px" font-style="normal" font-weight="normal" text-decoration="none" x="437" y="694.5">+Update(item: IIdentifiable): Task&lt;bool&gt;</text>
            </g>
        </g>
        <g transform="translate(-246,-14) scale(1,1)">
            <g>
                <path fill="none" stroke="none" />
                <text fill="#000000" stroke="none" font-family="Arial" font-size="13px" font-style="normal" font-weight="normal" text-decoration="none" x="437" y="709.5">+GetItems(): Task&lt;IEnumerable&lt;Identifiable&gt;&gt;</text>
            </g>
        </g>
        <g transform="translate(-246,-14) scale(1,1)">
            <path fill="none" stroke="#000000" d="M 768 649 L 711 649" stroke-miterlimit="10" stroke-dasharray="3" />
        </g>
        <g transform="translate(-246,-14) scale(1,1)">
            <rect fill="#C0C0C0" stroke="none" x="415" y="799" width="358.298828125" height="117" opacity="0.2" />
        </g>
        <g transform="translate(-246,-14) scale(1,1)">
            <rect fill="#ffffff" stroke="none" x="408" y="792" width="358.298828125" height="117" />
        </g>
        <g transform="translate(-246,-14) scale(1,1)">
            <path fill="none" stroke="#000000" d="M 408 792 L 766.298828125 792 L 766.298828125 909 L 408 909 L 408 792 Z Z" stroke-miterlimit="10" />
        </g>
        <g transform="translate(-246,-14) scale(1,1)">
            <path fill="none" stroke="#000000" d="M 408 817 L 766.298828125 817" stroke-miterlimit="10" />
        </g>
        <g transform="translate(-246,-14) scale(1,1)">
            <path fill="none" stroke="#000000" d="M 408 827 L 766.298828125 827" stroke-miterlimit="10" />
        </g>
        <g transform="translate(-246,-14) scale(1,1)">
            <g>
                <path fill="none" stroke="none" />
                <text fill="#000000" stroke="none" font-family="Arial" font-size="13px" font-style="normal" font-weight="bold" text-decoration="none" x="548.13037109375" y="811.5">ListsManager</text>
            </g>
        </g>
        <g transform="translate(-246,-14) scale(1,1)">
            <g>
                <path fill="none" stroke="none" />
                <text fill="#000000" stroke="none" font-family="Arial" font-size="13px" font-style="normal" font-weight="normal" text-decoration="none" x="413" y="844.5">+AddList(I: IRandomizerList): void</text>
            </g>
        </g>
        <g transform="translate(-246,-14) scale(1,1)">
            <g>
                <path fill="none" stroke="none" />
                <text fill="#000000" stroke="none" font-family="Arial" font-size="13px" font-style="normal" font-weight="normal" text-decoration="none" x="413" y="859.5">+RemoveList(l: IRandomizerList): void</text>
            </g>
        </g>
        <g transform="translate(-246,-14) scale(1,1)">
            <g>
                <path fill="none" stroke="none" />
                <text fill="#000000" stroke="none" font-family="Arial" font-size="13px" font-style="normal" font-weight="normal" text-decoration="none" x="413" y="874.5">+UpdateList(l: IRandomizerList): void</text>
            </g>
        </g>
        <g transform="translate(-246,-14) scale(1,1)">
            <g>
                <path fill="none" stroke="none" />
                <text fill="#000000" stroke="none" font-family="Arial" font-size="13px" font-style="normal" font-weight="normal" text-decoration="none" x="413" y="889.5">+AddItemToList(i: IRandomizerItem, listId: Guid): void</text>
            </g>
        </g>
        <g transform="translate(-246,-14) scale(1,1)">
            <g>
                <path fill="none" stroke="none" />
                <text fill="#000000" stroke="none" font-family="Arial" font-size="13px" font-style="normal" font-weight="normal" text-decoration="none" x="413" y="904.5">+RemoveItemFromList(i: IRandomizerItem, listId: Guid): void</text>
            </g>
        </g>
        <g transform="translate(-246,-14) scale(1,1)">
            <path fill="none" stroke="#000000" d="M 520 792 L 520 714" stroke-miterlimit="10" stroke-dasharray="3" />
        </g>
        <g transform="translate(-246,-14) scale(1,1)">
            <path fill="#FFFFFF" stroke="none" d="M 528.419035512032 734.3253497152483 L 520 714 L 511.580964487968 734.3253497152483" />
        </g>
        <g transform="translate(-246,-14) scale(1,1)">
            <path fill="none" stroke="#000000" d="M 528.419035512032 734.3253497152483 L 520 714 L 511.580964487968 734.3253497152483 L 528.419035512032 734.3253497152483" stroke-miterlimit="10" />
        </g>
    </g>
</svg>